<svg xmlns="http://www.w3.org/2000/svg" viewBox="0 0 66 71" height="18px" width="17px">
  <defs>
    <linearGradient id="a" x1="98.875%" x2="50%" y1="13.373%" y2="100%">
      <stop offset="0%" stop-color="#0ea7d6"/>
      <stop offset="100%" stop-color="#1FBAE9"/>
    </linearGradient>
  </defs>
  <g fill="none" fill-rule="evenodd">
    <path fill="#1FBAE9" d="M30.36 25.342l7.074 26.398a5.206 5.206 0 0 1-3.68 6.375l-22.628 6.063a5.206 5.206 0 0 0-3.68 6.376L.371 44.156a5.206 5.206 0 0 1 3.681-6.376l22.627-6.063a5.206 5.206 0 0 0 3.68-6.375z" opacity=".4"/>
    <path fill="url(#a)" d="M58.666.242l7.073 26.399a5.206 5.206 0 0 1-3.68 6.375L39.43 39.08a5.206 5.206 0 0 0-3.68 6.376l-7.074-26.399a5.206 5.206 0 0 1 3.68-6.375l22.628-6.063a5.206 5.206 0 0 0 3.68-6.376z"/>
  </g>
</svg>