<svg xmlns="http://www.w3.org/2000/svg" viewBox="0 0 66 71" height="14">
  <defs>
    <linearGradient id="a" x1="97.467%" x2="52.467%" y1="15.642%" y2="88.18%">
      <stop offset="0%" stop-color="#FFF"/>
      <stop offset="100%" stop-color="#D4D6D8"/>
    </linearGradient>
  </defs>
  <g fill="none" fill-rule="evenodd">
    <path fill="#FFF" d="M30.36 25.342l7.074 26.398a5.206 5.206 0 0 1-3.68 6.375l-22.628 6.063a5.206 5.206 0 0 0-3.68 6.376L.371 44.156a5.206 5.206 0 0 1 3.681-6.376l22.627-6.063a5.206 5.206 0 0 0 3.68-6.375z" opacity=".4"/>
    <path fill="url(#a)" d="M58.666.242l7.073 26.399a5.206 5.206 0 0 1-3.68 6.375L39.43 39.08a5.206 5.206 0 0 0-3.68 6.376l-7.074-26.399a5.206 5.206 0 0 1 3.68-6.375l22.628-6.063a5.206 5.206 0 0 0 3.68-6.376z"/>
  </g>
</svg>