<?xml version="1.0" encoding="UTF-8"?>
<svg width="75px" height="75px" viewBox="0 0 75 75" version="1.1" xmlns="http://www.w3.org/2000/svg" xmlns:xlink="http://www.w3.org/1999/xlink">
    <!-- Generator: Sketch 54.1 (76490) - https://sketchapp.com -->
    <title>icon-deactivate</title>
    <desc>Created with Sketch.</desc>
    <g id="Press" stroke="none" stroke-width="1" fill="none" fill-rule="evenodd">
        <g id="00.-General---deactivate-popup" transform="translate(-553.000000, -269.000000)">
            <g id="Popup" transform="translate(440.000000, 156.000000)">
                <g id="Lateral" transform="translate(26.000000, 113.000000)">
                    <g id="icon-deactivate" transform="translate(87.000000, 0.000000)">
                        <g id="Blank/_shadow" fill="#A9ADB2">
                            <rect id="shadow" x="0" y="0" width="75" height="75" rx="37.5"></rect>
                        </g>
                        <g id="Blank/Comments" transform="translate(20.625000, 24.375000)">
                            <path d="M4,0 L32.75,0 C33.3022847,-1.01453063e-16 33.75,0.44771525 33.75,1 L33.75,22.25 C33.75,24.459139 31.959139,26.25 29.75,26.25 L1,26.25 C0.44771525,26.25 6.76353751e-17,25.8022847 0,25.25 L0,4 C-2.705415e-16,1.790861 1.790861,4.05812251e-16 4,0 Z" id="Rectangle-7" fill="#FFFFFF"></path>
                            <path d="M20.625,26.25 L13.125,33.75 L13.125,26.25 L1,26.25 C0.44771525,26.25 6.76353751e-17,25.8022847 0,25.25 L0,4 C-2.705415e-16,1.790861 1.790861,4.05812251e-16 4,0 L32.75,0 C33.3022847,-1.01453063e-16 33.75,0.44771525 33.75,1 L33.75,22.25 C33.75,24.459139 31.959139,26.25 29.75,26.25 L20.625,26.25 Z" id="Combined-Shape" fill="#FFFFFF"></path>
                            <path d="M14.7558594,14.9609375 L14.7558594,14.1210938 C14.7558594,13.4830697 14.8860664,12.9443381 15.1464844,12.5048828 C15.4069023,12.0654275 15.8691373,11.6373719 16.5332031,11.2207031 C17.0605495,10.8886702 17.4397775,10.589194 17.6708984,10.3222656 C17.9020194,10.0553372 18.0175781,9.74935068 18.0175781,9.40429688 C18.0175781,9.13085801 17.8938814,8.91438882 17.6464844,8.75488281 C17.3990873,8.59537681 17.0768249,8.515625 16.6796875,8.515625 C15.6966097,8.515625 14.5475326,8.86392881 13.2324219,9.56054688 L11.875,6.90429688 C13.4961019,5.97981309 15.1887933,5.51757812 16.953125,5.51757812 C18.4049552,5.51757812 19.5442667,5.83658535 20.3710938,6.47460938 C21.1979208,7.1126334 21.6113281,7.98176533 21.6113281,9.08203125 C21.6113281,9.86979561 21.4274107,10.5517549 21.0595703,11.1279297 C20.6917299,11.7041044 20.1041707,12.2493464 19.296875,12.7636719 C18.6132778,13.2063824 18.1852222,13.5302724 18.0126953,13.7353516 C17.8401684,13.9404307 17.7539062,14.1829413 17.7539062,14.4628906 L17.7539062,14.9609375 L14.7558594,14.9609375 Z M14.3359375,18.3789062 C14.3359375,17.7799449 14.5100894,17.31771 14.8583984,16.9921875 C15.2067075,16.666665 15.7193977,16.5039062 16.3964844,16.5039062 C17.0475293,16.5039062 17.5471988,16.6682926 17.8955078,16.9970703 C18.2438168,17.325848 18.4179688,17.7864554 18.4179688,18.3789062 C18.4179688,18.9713571 18.2373065,19.4303369 17.8759766,19.7558594 C17.5146466,20.0813818 17.0214875,20.2441406 16.3964844,20.2441406 C15.7519499,20.2441406 15.2473977,20.0830094 14.8828125,19.7607422 C14.5182273,19.438475 14.3359375,18.9778676 14.3359375,18.3789062 Z" id="?" fill="#A9ADB2" fill-rule="nonzero"></path>
                        </g>
                    </g>
                </g>
            </g>
        </g>
    </g>
</svg>